<?xml version="1.0" encoding="utf-8"?>
<!-- Generator: Adobe Illustrator 24.0.2, SVG Export Plug-In . SVG Version: 6.00 Build 0)  -->
<svg version="1.1" id="Camada_1" xmlns="http://www.w3.org/2000/svg" xmlns:xlink="http://www.w3.org/1999/xlink" x="0px" y="0px"
	 viewBox="0 0 150 86" style="enable-background:new 0 0 150 86;" xml:space="preserve">
<style type="text/css">
	.st0{fill:#FFCA05;}
	.st1{fill:#00A3DF;}
	.st2{fill:#EE4023;}
	.st3{fill:#FFFFFF;}
</style>
<rect x="0" width="150" height="86"/>
<g>
	<g>
		<g>
			<path class="st0" d="M30.95,29.31c1.44-0.48,2.98-0.74,4.58-0.74c6.98,0,12.81,4.96,14.14,11.55l9.89-2.02
				C57.3,26.9,47.4,18.47,35.53,18.47c-2.72,0-5.33,0.44-7.78,1.26L30.95,29.31z"/>
			<path class="st1" d="M19.28,61.37l6.69-7.56C22.98,51.16,21.1,47.3,21.1,43c0-4.3,1.88-8.16,4.87-10.8l-6.69-7.57
				C14.2,29.13,11,35.69,11,43C11,50.31,14.2,56.88,19.28,61.37"/>
			<path class="st2" d="M49.67,45.9c-1.34,6.59-7.16,11.53-14.14,11.53c-1.6,0-3.14-0.26-4.58-0.74l-3.2,9.58
				c2.44,0.82,5.06,1.26,7.79,1.26c11.86,0,21.75-8.41,24.03-19.6L49.67,45.9z"/>
		</g>
	</g>
	<path class="st3" d="M68.22,54.13c-0.32-0.53-0.76-1.37-1.03-1.98c-1.57-3.64-1.64-7.4-0.32-11.02c1.45-3.96,4.23-7,7.82-8.54
		c4.51-1.94,9.51-1.56,13.83,1.01c2.75,1.58,4.7,4.01,6.18,7.45c0.19,0.44,0.35,0.91,0.52,1.31L68.22,54.13z M77.23,38.43
		c-3.21,1.38-4.86,4.38-4.52,7.91l13.58-5.84C83.96,37.75,80.92,36.84,77.23,38.43z M87.99,51.14
		C87.99,51.15,87.98,51.15,87.99,51.14l-0.29-0.18c-0.81,1.32-2.07,2.38-3.67,3.07c-3.04,1.32-5.85,0.98-7.87-0.79l-0.19,0.28
		c0,0,0-0.01-0.01-0.01l-3.45,5.15c0.86,0.59,1.77,1.1,2.74,1.5c3.81,1.58,7.7,1.51,11.54-0.16c2.77-1.2,4.95-3.04,6.44-5.36
		L87.99,51.14z"/>
	<path class="st3" d="M104.66,25v28.66l4.45,1.81l-2.53,5.91l-4.92-2.05c-1.1-0.48-1.85-1.21-2.42-2.04c-0.54-0.84-0.95-2-0.95-3.55
		V25H104.66z"/>
	<g>
		<path class="st3" d="M116.2,46.35c0-2.44,1.08-4.63,2.78-6.12l-4.57-5.1c-3.1,2.74-5.05,6.74-5.06,11.2
			c-0.01,4.46,1.94,8.47,5.04,11.22l4.57-5.1C117.27,50.97,116.2,48.79,116.2,46.35z"/>
		<path class="st3" d="M124.32,54.49c-0.9,0-1.77-0.15-2.57-0.42l-2.18,6.49c1.49,0.5,3.09,0.77,4.75,0.78
			c7.24,0.01,13.28-5.13,14.68-11.95l-6.71-1.37C131.52,51.71,128.24,54.49,124.32,54.49z"/>
		<path class="st3" d="M124.34,31.39c-1.66,0-3.26,0.27-4.75,0.76l2.16,6.5c0.81-0.27,1.68-0.42,2.58-0.42
			c3.93,0,7.21,2.8,7.96,6.51l6.71-1.36C137.62,36.55,131.58,31.39,124.34,31.39z"/>
	</g>
</g>
</svg>
